/* XPM */
static char *result[] = {
/* columns rows colors chars-per-pixel */
"32 32 6 1 ",
"  c #613639",
". c #744141",
"X c #994B4B",
"o c #AC5C56",
"O c #A76262",
"+ c #B57A6F",
/* pixels */
"XXXXXXXXXXXXoo..++++++++++++++..",
"XXXXXXXXXXXXoo..++++++++++++++..",
"XXXXXXXXXXXXoo..++++++++++++++..",
"XXXXXXXXXXXXoo..++++++++++++++..",
"XXXXXXXXXXXXoo..++++++++++++++..",
"XXXXXXXXXXXXoo..++++++++++++++..",
"XXXXXXXXXXXXoo..++++++++++++++..",
"XXXXXXXXXXXXoo..++++++++++++++..",
"XXXXXXXXXXXXoo..++++++++++++++..",
"XXXXXXXXXXXXoo..++++++++++++++..",
"XXXXXXXXXXXXoo..++++++++++++++..",
"XXXXXXXXXXXXoo..++++++++++++++..",
"XXXXXXXXXXXXoo..................",
"XXXXXXXXXXXXoo..................",
"XXXXXXXXXXXXoo..oooooooooooooo..",
"XXXXXXXXXXXXoo..oooooooooooooo..",
"            ....oooooooooooooo..",
"            ....oooooooooooooo..",
"OOOOOOOOOOOO++..oooooooooooooo..",
"OOOOOOOOOOOO++..oooooooooooooo..",
"OOOOOOOOOOOO++..oooooooooooooo..",
"OOOOOOOOOOOO++..oooooooooooooo..",
"OOOOOOOOOOOO++..oooooooooooooo..",
"OOOOOOOOOOOO++..oooooooooooooo..",
"OOOOOOOOOOOO++..oooooooooooooo..",
"OOOOOOOOOOOO++..oooooooooooooo..",
"OOOOOOOOOOOO++..oooooooooooooo..",
"OOOOOOOOOOOO++..oooooooooooooo..",
"OOOOOOOOOOOO++..oooooooooooooo..",
"OOOOOOOOOOOO++..oooooooooooooo..",
"            ....................",
"            ...................."
};
