/* XPM */
static char *result[] = {
/* columns rows colors chars-per-pixel */
"32 32 7 1 ",
"  c #222222",
". c #62232F",
"X c #8F4029",
"o c #C56025",
"O c #EE8E2E",
"+ c #FACB3E",
"@ c None",
/* pixels */
"@@@@@@@@@@@@@@@@@@@@@@@@@@@@@@@@",
"@@@@@@@@@@@@@@@@@@@@@@@@@@@@@@@@",
"@@@@    @@@@@@@@@@@@@@@@    @@@@",
"@@@@    @@@@@@@@@@@@@@@@    @@@@",
"    OO..                ..OO    ",
"    OO..                ..OO    ",
"  OO++XXOOOOOOOOOOOOOOOOXX++OO  ",
"  OO++XXOOOOOOOOOOOOOOOOXX++OO  ",
"  ooOOXXooooooooooooooooXXOOoo  ",
"  ooOOXXooooooooooooooooXXOOoo  ",
"  ooOOXXooooXX....XXooooXXOOoo  ",
"  ooOOXXooooXX....XXooooXXOOoo  ",
"  ++++..++++..++++..++++..++++  ",
"  ++++..++++..++++..++++..++++  ",
"    OOXX    ..OO++..    XXOO    ",
"    OOXX    ..OO++..    XXOO    ",
"  oo          ....          oo  ",
"  oo          ....          oo  ",
"  oo                        oo  ",
"  oo                        oo  ",
"  oooooooooooooooooooooooooooo  ",
"  oooooooooooooooooooooooooooo  ",
"  ............................  ",
"  ............................  ",
"  XXXXXXXXXXXXXXXXXXXXXXXXXXXX  ",
"  XXXXXXXXXXXXXXXXXXXXXXXXXXXX  ",
"  ..XXXXXXXXXXXXXXXXXXXXXXXX..  ",
"  ..XXXXXXXXXXXXXXXXXXXXXXXX..  ",
"  ............................  ",
"  ............................  ",
"                                ",
"                                "
};
