/* XPM */
static char *result[] = {
/* columns rows colors chars-per-pixel */
"32 32 7 1 ",
"  c #222222",
". c #62232F",
"X c #8F4029",
"o c #C56025",
"O c #EE8E2E",
"+ c #FACB3E",
"@ c None",
/* pixels */
"@@@@@@@@@@@@@@@@@@@@@@@@@@@@@@@@",
"@@@@@@@@@@@@@@@@@@@@@@@@@@@@@@@@",
"@@@@@@@@@@@@@@@@@@@@@@@@@@@@@@@@",
"@@@@@@@@@@@@@@@@@@@@@@@@@@@@@@@@",
"@@@@    @@@@@@@@@@@@@@@@    @@@@",
"@@@@    @@@@@@@@@@@@@@@@    @@@@",
"    ++..                ..++    ",
"    ++..                ..++    ",
"  OOOOXXOOOOOOOOOOOOOOOOXXOOOO  ",
"  OOOOXXOOOOOOOOOOOOOOOOXXOOOO  ",
"  oo++..oooooooooooooooo..++oo  ",
"  oo++..oooooooooooooooo..++oo  ",
"  ooOOXXooooooooooooooooXXOOoo  ",
"  ooOOXXooooooooooooooooXXOOoo  ",
"  oo++..oooooooooooooooo..++oo  ",
"  oo++..oooooooooooooooo..++oo  ",
"  ooOOXXooooXX....XXooooXXOOoo  ",
"  ooOOXXooooXX....XXooooXXOOoo  ",
"  ++++..++++..++++..++++..++++  ",
"  ++++..++++..++++..++++..++++  ",
"    OOXX    ..OO++..    XXOO    ",
"    OOXX    ..OO++..    XXOO    ",
"  ..    ....        ....    ..  ",
"  ..    ....        ....    ..  ",
"  XX....XXXX........XXXX....XX  ",
"  XX....XXXX........XXXX....XX  ",
"  ..XXXXXXXXXXXXXXXXXXXXXXXX..  ",
"  ..XXXXXXXXXXXXXXXXXXXXXXXX..  ",
"  ............................  ",
"  ............................  ",
"                                ",
"                                "
};
