/* XPM */
static char *result[] = {
/* columns rows colors chars-per-pixel */
"32 32 8 1 ",
"  c #222222",
". c #8F4029",
"X c #C56025",
"o c #5956BD",
"O c #5698CC",
"+ c #B6CBCF",
"@ c #FDF7ED",
"# c None",
/* pixels */
"################################",
"################################",
"################################",
"################################",
"################################",
"################################",
"################################",
"################################",
"########                ########",
"########                ########",
"########  ....XXXXXXXX  ########",
"########  ....XXXXXXXX  ########",
"########  @@++++++++@@  ########",
"########  @@++++++++@@  ########",
"##########  @@++++@@  ##########",
"##########  @@++++@@  ##########",
"##########  @@oooo@@  ##########",
"##########  @@oooo@@  ##########",
"########  @@oo@@oooo@@  ########",
"########  @@oo@@oooo@@  ########",
"######  @@oo@@ooooooooOO  ######",
"######  @@oo@@ooooooooOO  ######",
"######  @@OOoo@@ooOOooOO  ######",
"######  @@OOoo@@ooOOooOO  ######",
"######  @@ooooOOOOooooOO  ######",
"######  @@ooooOOOOooooOO  ######",
"########  @@OOOOOOOOOO  ########",
"########  @@OOOOOOOOOO  ########",
"##########            ##########",
"##########            ##########",
"################################",
"################################"
};
