/* XPM */
static char *result[] = {
/* columns rows colors chars-per-pixel */
"32 32 4 1 ",
"  c #222222",
". c #D3BFA9",
"X c #FDF7ED",
"o c None",
/* pixels */
"oooooooooooooooooooooooooooooooo",
"oooooooooooooooooooooooooooooooo",
"oooooooooooooooooooooooooooooooo",
"oooooooooooooooooooooooooooooooo",
"oooooo                    oooooo",
"oooooo                    oooooo",
"oooooo  XXXXXXXXXXXXXX..  oooooo",
"oooooo  XXXXXXXXXXXXXX..  oooooo",
"oooooo  XXXXXXXXXXXXXX..  oooooo",
"oooooo  XXXXXXXXXXXXXX..  oooooo",
"oooooo    XXXXXX    XX..  oooooo",
"oooooo    XXXXXX    XX..  oooooo",
"oooooo    XXXXXX    XX..  oooooo",
"oooooo    XXXXXX    XX..  oooooo",
"oooooo  ..XX  XX....XX..  oooooo",
"oooooo  ..XX  XX....XX..  oooooo",
"oooooo  XXXXXXXXXXXXXX..  oooooo",
"oooooo  XXXXXXXXXXXXXX..  oooooo",
"oooooo  XXXXXXXXXXXXXX..  oooooo",
"oooooo  XXXXXXXXXXXXXX..  oooooo",
"oooooo        ....        oooooo",
"oooooo        ....        oooooo",
"oooooooooooo  XXXX  oooooooooooo",
"oooooooooooo  XXXX  oooooooooooo",
"oooooooooo    XXXX    oooooooooo",
"oooooooooo    XXXX    oooooooooo",
"oooooooo    XXXXXXXX    oooooooo",
"oooooooo    XXXXXXXX    oooooooo",
"oooooooo  ..        ..  oooooooo",
"oooooooo  ..        ..  oooooooo",
"oooooooo      oooo      oooooooo",
"oooooooo      oooo      oooooooo"
};
