/* XPM */
static char *result[] = {
/* columns rows colors chars-per-pixel */
"32 32 3 1 ",
"  c #222222",
". c #483B3A",
"X c #775C55",
/* pixels */
"  XXXXXXXXXXXXXXXX  XXXXXX  XXXX",
"  XXXXXXXXXXXXXXXX  XXXXXX  XXXX",
"  ................  ......  ....",
"  ................  ......  ....",
"  ........  ......  ....    ....",
"  ........  ......  ....    ....",
"                                ",
"                                ",
"    XXXX  XXXXXXXXXXXX  XXXXXXXX",
"    XXXX  XXXXXXXXXXXX  XXXXXXXX",
"  ......  ............  ........",
"  ......  ............  ........",
"  ......  ............  ..  ....",
"  ......  ............  ..  ....",
"                                ",
"                                ",
"  XXXXXXXXXXXX  XXXXXXXXXXXX    ",
"  XXXXXXXXXXXX  XXXXXXXXXXXX    ",
"  ............  ............  ..",
"  ............  ............  ..",
"  ....  ......  ............  ..",
"  ....  ......  ............  ..",
"                                ",
"                                ",
"  XXXXXX  XXXXXXXXXX  XXXXXXXXXX",
"  XXXXXX  XXXXXXXXXX  XXXXXXXXXX",
"  ......  ..........  ..........",
"  ......  ..........  ..........",
"  ......  ......  ..  ..  ......",
"  ......  ......  ..  ..  ......",
"                                ",
"                                "
};
