/* XPM */
static char *result[] = {
/* columns rows colors chars-per-pixel */
"96 15 221 2 ",
"   c black",
".  c #090809",
"X  c #231F22",
"o  c #221E21",
"O  c #1B181A",
"+  c #292427",
"@  c #1A1719",
"#  c #0A090A",
"$  c #252023",
"%  c #201D1F",
"&  c #2A2529",
"*  c #161315",
"=  c #0A0909",
"-  c #272226",
";  c #292528",
":  c #1C191B",
">  c #060606",
",  c #2E282C",
"<  c #2F292D",
"1  c #171516",
"2  c #030203",
"3  c #252124",
"4  c #2D282B",
"5  c #2C272B",
"6  c #1D1A1C",
"7  c #010001",
"8  c #040304",
"9  c #1F1C1E",
"0  c #0F0D0F",
"q  c #141213",
"w  c #191618",
"e  c #151314",
"r  c #181517",
"t  c #0B0A0A",
"y  c #211D1F",
"u  c #050405",
"i  c #282327",
"p  c #0C0B0C",
"a  c #1E1B1D",
"s  c #0A0809",
"d  c #282326",
"f  c #0D0C0D",
"g  c #100E0F",
"h  c #292428",
"j  c #282427",
"k  c #272225",
"l  c #131112",
"z  c #4B4248",
"x  c #554B52",
"c  c #423A40",
"v  c #544B51",
"b  c #121011",
"n  c #3F383D",
"m  c #4A4147",
"M  c #52484F",
"N  c #2B272A",
"B  c #584E55",
"V  c #4C4349",
"C  c #494046",
"Z  c #494147",
"A  c #544A51",
"S  c #010101",
"D  c #413A3F",
"F  c #50474E",
"G  c #383136",
"H  c #574D54",
"J  c #2F2A2E",
"K  c #080707",
"L  c #41393E",
"P  c #262225",
"I  c #332D31",
"U  c #302B2F",
"Y  c #433C41",
"T  c #131113",
"R  c #443D42",
"E  c #494146",
"W  c #4B4349",
"Q  c #594E55",
"!  c #484046",
"~  c #473F44",
"^  c #4E454C",
"/  c #594F56",
"(  c #463E44",
")  c #110F10",
"_  c #473F45",
"`  c #151315",
"'  c #3B3439",
"]  c #2A2528",
"[  c #020101",
"{  c #161416",
"}  c #4F464C",
"|  c #0C0A0B",
" . c #594E56",
".. c gray2",
"X. c #060506",
"o. c #2B262A",
"O. c #564C53",
"+. c #4D444B",
"@. c #020202",
"#. c #040404",
"$. c #433B41",
"%. c #373135",
"&. c #0B090A",
"*. c #332E32",
"=. c #453D43",
"-. c gray1",
";. c #1D191C",
":. c #4E454B",
">. c #0F0D0E",
",. c #0F0E0F",
"<. c #070707",
"1. c #312B2F",
"2. c #0D0B0C",
"3. c #342E32",
"4. c #141214",
"5. c #090808",
"6. c #201C1F",
"7. c #51484F",
"8. c #121012",
"9. c #020102",
"0. c #211D20",
"q. c #2D282C",
"w. c #272326",
"e. c #4A4248",
"r. c #41393F",
"t. c #352F33",
"y. c #2E292D",
"u. c #433B40",
"i. c #4C444A",
"p. c #0E0C0D",
"a. c #443C42",
"s. c #141113",
"d. c #3E373C",
"f. c #0E0D0E",
"g. c #211E20",
"h. c #110F11",
"j. c #4F464D",
"k. c #50474D",
"l. c #302A2E",
"z. c #252024",
"x. c #0B0A0B",
"c. c #322C30",
"v. c #080708",
"b. c #342E33",
"n. c #352F34",
"m. c #4D444A",
"M. c #393337",
"N. c #171416",
"B. c #070607",
"V. c #3C353A",
"C. c #5E535A",
"Z. c #5E535B",
"A. c #373035",
"S. c #242023",
"D. c #383236",
"F. c #3A3338",
"G. c #534950",
"H. c #423A3F",
"J. c #484045",
"K. c #1F1B1E",
"L. c #393237",
"P. c #5F545B",
"I. c #554B51",
"U. c #3B3539",
"Y. c #171517",
"T. c #443C41",
"R. c #191619",
"E. c #51474E",
"W. c #0D0B0D",
"Q. c #040303",
"!. c #5D535A",
"~. c #5D525A",
"^. c #312C30",
"/. c #5F545C",
"(. c #0E0C0E",
"). c #3D363B",
"_. c #5A5057",
"`. c #100E10",
"'. c #181617",
"]. c #191719",
"[. c #241F22",
"{. c #423B40",
"}. c #2F2A2D",
"|. c #40393E",
" X c #3E363B",
".X c #40383D",
"XX c #3A3439",
"oX c #2D272B",
"OX c #393338",
"+X c #1B181B",
"@X c #1A171A",
"#X c #383237",
"$X c #070606",
"%X c #2B2629",
"&X c #534A50",
"*X c #524950",
"=X c #151214",
"-X c #463E43",
";X c #060505",
":X c #5A4F57",
">X c #5A4F56",
",X c #2A2629",
"<X c #453D42",
"1X c #322D31",
"2X c #483F45",
"3X c #161415",
"4X c #221E20",
"5X c #5D5259",
"6X c #544B52",
"7X c #51484E",
"8X c #100F10",
"9X c #363034",
"0X c #262124",
"qX c #3B353A",
"wX c #5C5158",
"eX c #5B5058",
"rX c #4C434A",
"tX c #1D1A1D",
"yX c #131012",
"uX c #231F21",
"iX c white",
/* pixels */
"  . X o . O + @   # $ # % & *         = - ; ; ; ; ; :       > ; , < 1         2 3 4 5 6 7         8 9 $ 0 q w             e r t X y u         w ; ; ; ; ; i p       * + a s 3 d f     g h j k # ",
"  l z x r c v 5   b n l m M 3       . N B V C C Z A Z * S   . D B F X         8 G H v J S         K L B P I n             & U : H Y .     S T R x E C C W Q U s     k A ! b D ~ w     : ^ / ( ) ",
"  S T _ ` ' ] [   S > { } j S   | . o  .C g ..X.u o.O.+.e @.  # W P S           #.$.%.@.            &.m i *.=.p S         #.-.;.:.>.  -.,.<.$.B 1...X...2.=./ 3..   @.& } r 4.5.S     S 6.7.b   ",
"    @.| &.8.>...  9.e } O.0.    I q.9 ~ >.S     > # w.H :.f   > e.X             S r.t.              8 _ i y./ u.u             ;.i..   p.a.s.d.y.u     S s f.$./ 3.    g.v } C h.X.u     O j.p   ",
"      X.L ^ k.l.S r } H z...    >.g x.b S       I c.v.P 7.f.  > e.X             S r.b.              #._ 5 # n.m ..            9 m..   8 4.. b #       f =.{ f Y M.    . N.N.q B.V.P     @ } p   ",
"      v.m.C.Z.A.@ :.H S.u       q.C ! D.#.      F.H J r k.f.  > e.X             S r.3.              #.~ G.S.+ m ..          6 :.^ .   2.H.J._ K.      ,.v V ` L.M.    6 J.! $.8.( y.    @ } |   ",
"      v.:.Z.P.t.o I.3 u       7 U.P.Z.e.X.      Y.T.n R.E.>.  > e.X             S r.3.              @.a V t.g 6 W.b.p       j 7.X Q.  ) O.!.C.h       X.j G.a F.F.    P ~.~.H N.=.k.3   w ^ p   ",
"      #.h ^.J w ,.X @.        7 V./.P.z X.        y.L (.i B.  > e.X             S r.3.                  ).%.  p ' _.).`.    d _ -.    ) O.Z.Z.]         B.W K.: :     P C.C.B * o j.D.  '.^ p   ",
"            w ].g [.Q.          z.' ' y.Q.        J {.p o B.  > e.X R.J }.J l.y.p.|.3.                S  XW O : B .XF.b   ` L ! #.    # t.' XX].        v.m.6.Y.w     Y.F.F.t.p   V.e.: w ^ p   ",
"            ' L.o :.v.          q b p w @.        X l.w 7.g   > e.o S.{.|.L L n b n 3.                7 oX( y.e OXf +XK.x.*.H t.-.    ..@Xv.N.f.        X.#X1 F.U.    2.r B.@ $X  %X&Xu.O ^ 2.  ",
"            F.D.o m.v.          V.3.X C u         S 5.& *Xg   $Xz 3.p f O O w <.* m 3.                  @.f r { =Xp.a. .X ; t.-.      ) } N.T.h           @.b -X'     P ( * k.*   7 1.Y @ } f   ",
"            F.D.o m.v.          A.J S.m.) S       ..h B V f   ;Xr.k.3 d :X>XM s.V.k.,X                    q.B B m.x.x.V < # u         0 J.` =.c.>       7 p.<XQ 1X    P 2X3XM N.    h V.w } p.  ",
"          X.).D.g.} ) S         . > 4XH z b B.K B.4 H V 8.S   S . 8.. ] ~.5X6X) ,.f.u                     U !.5X7Xx.#.-XB %X          @.| > H.B I B.K B.f._  .c.$X  2 o.! { M ;.9.  # 8Xa 7X4.S ",
"        @.%.H 9X9 H J.f             B.d H m.z z e.A _ l S       S 9X0Xw.>X/ 7Xq qXa                       < wXeXk.x.  b 2Xl.              7 g c x z z z rXH q.v.    d G.( * G.:.@   0Xz k.B Z s.",
"        S O 3 ` x.9 tX..              v.0.X X X X X r           S 3X0 f a a O B.r p                       8.S.S.6.u     @ T                   e X X X X X o &.      yXX w v.9 0.x.  b S.X uX4X# "
};
